<svg xmlns="http://www.w3.org/2000/svg" width="185.111" height="88.618" viewBox="0 0 185.111 88.618"><defs><style>.a{fill:#ebecec;}.b{fill:#bbbbb9;}</style></defs><rect class="a" width="55.556" height="88.129" transform="translate(24.941 0)"/><path class="b" d="M52.172,39.017,4.333,79.087V55.237l47.838-40.07Z" transform="translate(-4.333 -6.171)"/><path class="b" d="M61.4,79.357H92.7v4.731H61.4V97.71H94.291v5.055H56.431V61.571H94.316v5.016H61.4Z" transform="translate(-13.828 -14.629)"/><path class="b" d="M144.173,61.571a12.663,12.663,0,0,1,7.932,2.385q2.916,2.322,2.916,8.019,0,4.752-1.4,6.51a6.182,6.182,0,0,1-5.889,2.56c3.381.186,5.665.958,6.851,2.376s1.779,3.9,1.779,7.435c0,4.608-.909,7.839-3.009,9.5s-5.426,2.4-9.7,2.4H111.284V61.571ZM142.31,79.255a10.216,10.216,0,0,0,5.832-1.265c1.323-.884,1.714-2.764,1.714-5.6,0-2.73-.323-3.744-1.51-4.571a9.354,9.354,0,0,0-5.336-1.241H116.454v12.68Zm.407,18.556a12.847,12.847,0,0,0,6.442-1.234c1.535-.864,1.849-1.831,2.007-4.981a28.254,28.254,0,0,0-.345-4.935,3.306,3.306,0,0,0-1.681-1.844,4.765,4.765,0,0,0-2.088-.5c-.752-.052-1.556-.15-2.295-.191h-28.3V97.811Z" transform="translate(-23.826 -14.629)"/><path class="b" d="M192.476,84.03V79.076H220.21c0,.33.01.649.028.958s.029.608.029.9v1.853c0,5.808-.751,13.362-2.255,16.121s-5.39,4.139-11.664,4.139l-9.241.061H195.5q-.817,0-1.662.062h-3.268c-6.988,0-11.4-1.833-13.741-4.117-2.913-2.835-3.363-6.581-3.363-14.4V82.3c0-7.119-.317-12.148,1.749-15.833,1.831-3.264,5.8-5.154,12.937-5.154l9.47-.185a10.188,10.188,0,0,0,1.126.061,11.8,11.8,0,0,0,1.184-.061h4.143q.93,0,1.889.061.9.063,1.86.093a18.145,18.145,0,0,1,1.861.155q5.579.432,7.721,3.3c1.428,1.914,2.7,7.316,2.434,10.982l-5.223-.061c0-3.826-1.111-6.883-2.7-7.966-1.447-.99-3.121-1.156-6.127-1.239h-.508l-7.665-.124a10.234,10.234,0,0,1-1.128.061,8.766,8.766,0,0,1-1.07-.061h-4.086q-.931,0-1.832.061-.958.063-1.86.094t-1.861.154a1.193,1.193,0,0,0-.253.031,1.208,1.208,0,0,1-.254.03c-2.067.206-3.089.379-4.326,1.27-1.278.92-1.96,2.564-2.185,6.432q-.056,1.3-.113,2.627T178.6,79.72q-.056,1.36-.056,2.688v2.626c0,5.027,0,6.9.829,8.9s3.33,3.651,8.326,3.734l9.538-.021a6.96,6.96,0,0,0,.932-.02h1.013a8.249,8.249,0,0,0,1.015.02h2.676c.545,0,1.1.021,1.662-.02s1.2,0,1.745-.042,1.1-.083,1.662-.124c3.531-.415,5.167-1.389,5.825-3.112a14.777,14.777,0,0,0,1.04-5.723q0-.435.029-.9c.018-.311.021-3.359.021-3.691Z" transform="translate(-35.155 -14.548)"/></svg>